<svg width="20" height="22" viewBox="0 0 20 22" fill="none" xmlns="http://www.w3.org/2000/svg">
<path d="M1.82477 8.84C1.86576 8.33881 2.0976 7.87115 2.47413 7.53017C2.85067 7.18918 3.34426 6.9999 3.8566 7H16.1434C16.6557 6.9999 17.1493 7.18918 17.5259 7.53017C17.9024 7.87115 18.1342 8.33881 18.1752 8.84L18.9935 18.84C19.016 19.1152 18.9802 19.392 18.8883 19.6529C18.7965 19.9139 18.6506 20.1533 18.4598 20.3562C18.2691 20.5592 18.0376 20.7211 17.7799 20.8319C17.5222 20.9427 17.244 20.9999 16.9627 21H3.03735C2.75603 20.9999 2.47778 20.9427 2.22011 20.8319C1.96244 20.7211 1.73093 20.5592 1.54016 20.3562C1.3494 20.1533 1.2035 19.9139 1.11166 19.6529C1.01982 19.392 0.984027 19.1152 1.00653 18.84L1.82477 8.84V8.84Z" stroke="#181818" stroke-linecap="round" stroke-linejoin="round"/>
<path d="M14 10V5C14 3.93913 13.5786 2.92172 12.8284 2.17157C12.0783 1.42143 11.0609 1 10 1C8.93913 1 7.92172 1.42143 7.17157 2.17157C6.42143 2.92172 6 3.93913 6 5V10" stroke="#181818" stroke-linecap="round" stroke-linejoin="round"/>
</svg>
